<svg width="40" height="40" viewBox="0 0 40 40" fill="none" xmlns="http://www.w3.org/2000/svg">
<path d="M19.808 39.9984C30.7476 39.9984 39.6159 31.0445 39.6159 19.9992C39.6159 8.95395 30.7476 0 19.808 0C8.86832 0 0 8.95395 0 19.9992C0 31.0445 8.86832 39.9984 19.808 39.9984Z" fill="url(#paint0_linear_0_1)"/>
<path d="M5.50879 11.4002L16.5295 6.78418L20.6244 17.526L25.8736 29.5233L21.8804 36.3914L15.2673 35.1248L5.50879 11.4002Z" fill="#242120"/>
<path d="M18.0938 3.91309L29.9733 4.70901L28.381 32.6012L22.1246 36.6187L16.3999 31.8684L18.0938 3.91309Z" fill="white"/>
<path d="M22.3512 34.4902C22.9006 34.4902 23.346 34.0511 23.346 33.5095C23.346 32.9679 22.9006 32.5288 22.3512 32.5288C21.8018 32.5288 21.3564 32.9679 21.3564 33.5095C21.3564 34.0511 21.8018 34.4902 22.3512 34.4902Z" fill="#242120"/>
<defs>
<linearGradient id="paint0_linear_0_1" x1="26.5853" y1="38.7982" x2="12.8005" y2="1.28693" gradientUnits="userSpaceOnUse">
<stop stop-color="#ED3424"/>
<stop offset="1" stop-color="#F4A81C"/>
</linearGradient>
</defs>
</svg>
